<?xml version="1.0" encoding="UTF-8"?>
<svg width="96px" height="50px" viewBox="0 0 96 50" version="1.1" xmlns="http://www.w3.org/2000/svg" xmlns:xlink="http://www.w3.org/1999/xlink">
    <title>logos/b-baunuternehmen</title>
    <defs>
        <filter id="filter-1">
            <feColorMatrix in="SourceGraphic" type="matrix" values="0 0 0 0 1.000000 0 0 0 0 1.000000 0 0 0 0 1.000000 0 0 0 1.000000 0"></feColorMatrix>
        </filter>
    </defs>
    <g id="-" stroke="none" stroke-width="1" fill="none" fill-rule="evenodd">
        <g id="02-Barnsley-Referenzen-2-–-L" transform="translate(-1536.000000, -9817.000000)">
            <g id="Group" transform="translate(0.000000, 8624.000000)">
                <g id="moduls/footer" transform="translate(0.000000, 885.000000)">
                    <g id="logos/b-baunuternehmen" transform="translate(1536.000000, 308.500000)" filter="url(#filter-1)">
                        <g id="Group-40" fill="#0C253C">
                            <path d="M49.9401382,11.87511 L51.3899612,11.87511 C52.7850739,11.87511 53.4826303,11.31091 54.0297333,9.69891 L56.4506642,2.72701 L54.2212194,2.72701 L53.3048218,5.65547667 C53.1954012,5.99131 53.0859806,6.39431 53.0175927,6.70327667 C52.97656,6.87791 52.9355273,7.06597667 52.8944945,7.24061 L52.8671394,7.24061 C52.8261067,7.06597667 52.7713964,6.87791 52.7303636,6.70327667 C52.6341794,6.39431 52.5388776,5.99131 52.429457,5.65547667 L51.4857042,2.72701 L49.1331612,2.72701 L51.1984752,8.01974333 C51.4857042,8.75857667 51.62248,9.13471 51.62248,9.44367667 C51.62248,9.91384333 51.3626061,10.1690767 50.7056412,10.1690767 L49.9401382,10.1690767 L49.9401382,11.87511 Z M44.9067903,8.38244333 C44.3596873,8.38244333 43.94936,8.16751 43.94936,7.61674333 C43.94936,7.09284333 44.304977,6.89134333 45.1666642,6.68984333 C45.6180242,6.58237667 46.0283515,6.47491 46.3155806,6.32714333 L46.3155806,7.14657667 C46.3155806,7.89884333 45.7411224,8.38244333 44.9067903,8.38244333 L44.9067903,8.38244333 Z M44.1955564,9.77951 C45.2487297,9.77951 45.850543,9.41681 46.2745479,8.83917667 L46.301903,8.83917667 C46.3566133,9.20187667 46.4250012,9.45711 46.5344218,9.60487667 L48.6954788,9.60487667 L48.6954788,9.51084333 C48.4903152,9.38994333 48.4492824,9.08097667 48.4492824,8.53021 L48.4492824,5.06441 C48.4492824,4.20467667 48.1620533,3.53301 47.56024,3.10314333 C47.0541697,2.72701 46.3429358,2.53894333 45.2897624,2.53894333 C43.1834158,2.53894333 42.1575976,3.61361 42.1165648,4.90321 L44.1682012,4.90321 C44.2365891,4.32557667 44.5922061,4.01661 45.30344,4.01661 C45.9736412,4.01661 46.2608703,4.31214333 46.2608703,4.75544333 C46.2608703,5.22561 45.7958327,5.35994333 44.4827855,5.52114333 C43.0192848,5.69577667 41.8019806,6.17937667 41.8019806,7.68391 C41.8019806,9.04067667 42.8004436,9.77951 44.1955564,9.77951 L44.1955564,9.77951 Z M38.4509745,9.60487667 L40.7077745,9.60487667 L40.7077745,4.33333333e-05 L38.4509745,4.33333333e-05 L38.4509745,9.60487667 Z M34.1835709,9.81981 C36.0163661,9.81981 37.3704461,9.04067667 37.3704461,7.53614333 C37.3704461,5.77637667 35.920623,5.48084333 34.6896412,5.26591 C33.8005988,5.11814333 33.0072994,5.03754333 33.0072994,4.55394333 C33.0072994,4.12407667 33.4313042,3.92257667 33.9784073,3.92257667 C34.5938982,3.92257667 35.0042255,4.09721 35.0999685,4.72857667 L37.1516048,4.72857667 C37.0421842,3.37181 35.9753333,2.52551 33.9920848,2.52551 C32.3370982,2.52551 30.9693406,3.27777667 30.9693406,4.72857667 C30.9693406,6.35401 32.2687103,6.64954333 33.4860145,6.86447667 C34.4024121,7.03911 35.2640994,7.07941 35.2640994,7.71077667 C35.2640994,8.15407667 34.8400945,8.39587667 34.1698933,8.39587667 C33.4176267,8.39587667 32.9799442,8.06004333 32.8842012,7.37494333 L30.7778545,7.37494333 C30.8462424,8.89291 32.118257,9.81981 34.1835709,9.81981 L34.1835709,9.81981 Z M22.9953139,9.60487667 L25.2247588,9.60487667 L25.2247588,5.80324333 C25.2247588,4.94351 25.7034739,4.35244333 26.4557406,4.35244333 C27.1810933,4.35244333 27.5499467,4.83604333 27.5499467,5.57487667 L27.5499467,9.60487667 L29.7798327,9.60487667 L29.7798327,5.13157667 C29.7798327,3.60017667 28.8766715,2.52551 27.344783,2.52551 C26.3599976,2.52551 25.7171515,2.91507667 25.1837261,3.66734333 L25.1426933,3.66734333 L25.1426933,2.72701 L22.9953139,2.72701 L22.9953139,9.60487667 Z M17.3058836,9.60487667 L19.5348873,9.60487667 L19.5348873,6.51521 C19.5348873,5.01067667 20.4102521,4.35244333 21.7780097,4.55394333 L21.83272,4.55394333 L21.83272,2.67327667 C21.7506545,2.63297667 21.6006424,2.61954333 21.3954788,2.61954333 C20.5337915,2.61954333 19.9730109,2.98224333 19.480177,3.80167667 L19.4395855,3.80167667 L19.4395855,2.72701 L17.3058836,2.72701 L17.3058836,9.60487667 Z M12.2725358,8.38244333 C11.7254327,8.38244333 11.3151055,8.16751 11.3151055,7.61674333 C11.3151055,7.09284333 11.6707224,6.89134333 12.5324097,6.68984333 C12.9837697,6.58237667 13.394097,6.47491 13.6813261,6.32714333 L13.6813261,7.14657667 C13.6813261,7.89884333 13.1068679,8.38244333 12.2725358,8.38244333 L12.2725358,8.38244333 Z M11.5613018,9.77951 C12.6144752,9.77951 13.2162885,9.41681 13.6402933,8.83917667 L13.6676485,8.83917667 C13.7223588,9.20187667 13.7907467,9.45711 13.9001673,9.60487667 L16.0612242,9.60487667 L16.0612242,9.51084333 C15.8560606,9.38994333 15.8150279,9.08097667 15.8150279,8.53021 L15.8150279,5.06441 C15.8150279,4.20467667 15.5277988,3.53301 14.9259855,3.10314333 C14.4199152,2.72701 13.7086812,2.53894333 12.6555079,2.53894333 C10.5491612,2.53894333 9.52334303,3.61361 9.4823103,4.90321 L11.5339467,4.90321 C11.6023345,4.32557667 11.9579515,4.01661 12.6691855,4.01661 C13.3393867,4.01661 13.6266158,4.31214333 13.6266158,4.75544333 C13.6266158,5.22561 13.1615782,5.35994333 11.8485309,5.52114333 C10.3850303,5.69577667 9.16772606,6.17937667 9.16772606,7.68391 C9.16772606,9.04067667 10.1661891,9.77951 11.5613018,9.77951 L11.5613018,9.77951 Z M2.43835879,3.80167667 L2.43835879,1.88071 L4.42160727,1.88071 C5.13284121,1.88071 5.58420121,2.22997667 5.58420121,2.83447667 C5.58420121,3.46584333 5.10548606,3.80167667 4.4079297,3.80167667 L2.43835879,3.80167667 Z M2.43835879,7.69734333 L2.43835879,5.41367667 L4.57206061,5.41367667 C5.32432727,5.41367667 5.88510788,5.80324333 5.88510788,6.56894333 C5.88510788,7.25404333 5.40639273,7.69734333 4.59941576,7.69734333 L2.43835879,7.69734333 Z M0.0447830303,9.60487667 L4.87296727,9.60487667 C5.88510788,9.60487667 6.69208485,9.37651 7.28022061,8.91977667 C7.92306667,8.43617667 8.27868364,7.73764333 8.27868364,6.77044333 C8.27868364,5.62861 7.60848242,4.74201 6.52795394,4.41961 L6.52795394,4.37931 C7.40331879,4.05691 7.89571152,3.46584333 7.89571152,2.49864333 C7.89571152,1.73294333 7.60848242,1.11501 7.04770182,0.658276667 C6.51427636,0.241843333 5.78936485,4.33333333e-05 4.76354667,4.33333333e-05 L0.0447830303,4.33333333e-05 L0.0447830303,9.60487667 Z" id="Fill-1"></path>
                            <polygon id="Fill-6" points="14.3247457 46.88476 0.00476509091 46.88476 -8.82424244e-05 17.0363267 0.882336 17.0363267 0.887189333 46.0180933 14.3247457 46.0180933"></polygon>
                            <path d="M40.7433804,47.4331867 C40.7433804,48.3197867 40.2633416,48.7695867 39.3156179,48.7695867 C38.3498046,48.7695867 37.8799137,48.3323533 37.8799137,47.4331867 L37.8799137,43.9062867 L37.3482531,43.9062867 L37.3482531,47.47652 C37.3482531,48.60492 38.0391913,49.2267533 39.2931161,49.2267533 C39.8878701,49.2267533 40.3802628,49.0811533 40.7177901,48.80642 C41.087967,48.50482 41.2754822,48.0567533 41.2754822,47.47652 L41.2754822,43.9062867 L40.7433804,43.9062867 L40.7433804,47.4331867 Z" id="Fill-9"></path>
                            <path d="M46.2357212,48.3959233 C46.214543,48.3582233 46.1924824,48.3205233 46.1739515,48.28889 C46.1461552,48.24209 46.1174764,48.1931233 46.0910036,48.1450233 C45.9595224,47.9166567 45.8403952,47.72729 45.7270036,47.56869 L43.2888655,43.91439 L43.2835709,43.9061567 L42.7148485,43.9061567 L42.7148485,49.1460233 L43.2248897,49.1460233 L43.2248897,44.6779233 C43.2778352,44.7680567 43.3325455,44.8612233 43.3921091,44.95179 L43.4079927,44.9769233 C43.431377,45.01419 43.4560848,45.05319 43.4812339,45.0930567 L43.5006473,45.1238233 C43.5827127,45.2542567 43.6758085,45.40159 43.7627273,45.52769 L46.1942473,49.1386567 L46.1995418,49.1460233 L46.7457624,49.1460233 L46.7457624,43.9061567 L46.2357212,43.9061567 L46.2357212,48.3959233 Z" id="Fill-12"></path>
                            <path d="M35.3620485,47.4331867 C35.3620485,48.3197867 34.8815685,48.7695867 33.9342861,48.7695867 C32.9684727,48.7695867 32.4994642,48.3323533 32.4994642,47.4331867 L32.4994642,43.9062867 L31.9673624,43.9062867 L31.9673624,47.47652 C31.9673624,48.60492 32.6578594,49.2267533 33.9122255,49.2267533 C34.5069794,49.2267533 34.9989309,49.0811533 35.3364582,48.80642 C35.7061939,48.5052533 35.8941503,48.0571867 35.8941503,47.47652 L35.8941503,43.9062867 L35.3620485,43.9062867 L35.3620485,47.4331867 Z" id="Fill-14"></path>
                            <path d="M28.711967,44.80866 L28.7225561,44.7765933 C28.7357925,44.7349933 28.7490288,44.6946933 28.761824,44.6574267 L28.8412422,44.4229933 C28.8584495,44.4762933 28.8756567,44.52786 28.8924228,44.5776933 C28.901247,44.6041267 28.9100713,44.6309933 28.9188955,44.6574267 L28.9215428,44.66436 C28.9899307,44.8667267 29.0499355,45.03096 29.0993513,45.1522933 L29.8176446,47.07326 L27.859104,47.07326 L28.5915161,45.1522933 C28.6325488,45.0474267 28.6726992,44.9260933 28.711967,44.80866 L28.711967,44.80866 Z M29.1355307,43.90646 L28.5482773,43.90646 L26.5420858,49.1229267 L26.5337028,49.14676 L27.0755113,49.14676 L27.6976204,47.5083267 L29.978687,47.5083267 L30.5893246,49.13506 L30.5932955,49.14676 L31.1655476,49.14676 L29.1399428,43.9172933 L29.1355307,43.90646 Z" id="Fill-17"></path>
                            <path d="M24.105536,46.1920333 L22.4258415,46.1920333 L22.4258415,44.3703 L24.120096,44.3703 C24.7448524,44.3703 25.1031166,44.6983333 25.1031166,45.2703333 C25.1031166,45.8475333 24.7302924,46.1920333 24.105536,46.1920333 L24.105536,46.1920333 Z M22.4258415,46.6492 L24.1796596,46.6492 C24.8970705,46.6492 25.3254875,47.0318333 25.3254875,47.6727333 C25.3254875,47.9678333 25.2376863,48.2035667 25.0647312,48.3734333 C24.8472136,48.5710333 24.5577784,48.6672333 24.1796596,48.6672333 L22.4258415,48.6672333 L22.4258415,46.6492 Z M24.8410366,46.3727333 C25.380639,46.1829333 25.642719,45.8098333 25.642719,45.2339333 C25.642719,44.8456667 25.5112378,44.5280333 25.2518051,44.2897 C24.9738415,44.0318667 24.6014584,43.9062 24.1130366,43.9062 L21.8937396,43.9062 L21.8937396,49.1460667 L24.2092208,49.1460667 C24.7527942,49.1460667 25.1904766,48.9909333 25.4746172,48.6967 C25.7336087,48.4349667 25.8650899,48.0878667 25.8650899,47.6653667 C25.8650899,47.0184 25.5015312,46.5595 24.8410366,46.3727333 L24.8410366,46.3727333 Z" id="Fill-19"></path>
                            <path d="M66.9457328,48.3959233 C66.9298492,48.3677567 66.9130832,48.3387233 66.8967583,48.3105567 L66.8821983,48.2867233 C66.8544019,48.2390567 66.8266056,48.1922567 66.8010153,48.1450233 C66.6712989,47.91839 66.5517304,47.72989 66.4370153,47.56869 L63.9984359,43.91439 L63.9935825,43.9061567 L63.4248601,43.9061567 L63.4248601,49.1460233 L63.9344601,49.1460233 L63.9344601,44.6766233 C63.9887292,44.7702233 64.0429983,44.86209 64.1021207,44.95179 C64.1307995,44.99729 64.1608019,45.0458233 64.1925692,45.0952233 L64.1943341,45.09869 C64.2816941,45.2369233 64.3800844,45.3933567 64.4727389,45.52769 L66.9038177,49.1386567 L66.9091122,49.1460233 L67.4553328,49.1460233 L67.4553328,43.9061567 L66.9457328,43.9061567 L66.9457328,48.3959233 Z" id="Fill-21"></path>
                            <polygon id="Fill-3" points="95.0519156 36.5668333 94.1694914 36.5668333 94.1694914 3.59276667 64.1595665 3.59276667 64.1595665 2.7261 95.0519156 2.7261"></polygon>
                            <polygon id="Fill-23" points="47.770257 44.37784 49.5637842 44.37784 49.5637842 49.14624 50.0958861 49.14624 50.0958861 44.37784 51.8819127 44.37784 51.8819127 43.90594 47.770257 43.90594"></polygon>
                            <polygon id="Fill-25" points="86.5275651 46.6638467 89.3742657 46.6638467 89.3742657 46.20668 86.5275651 46.20668 86.5275651 44.3706467 89.6336984 44.3706467 89.6336984 43.9065467 85.9950221 43.9065467 85.9950221 49.1464133 89.7148815 49.1464133 89.7148815 48.65978 86.5275651 48.65978"></polygon>
                            <path d="M81.9805653,48.43696 L80.1588005,43.91686 L80.1543884,43.90646 L79.4497726,43.90646 L79.4497726,49.14676 L79.945695,49.14676 L79.945695,44.6530933 C79.9620199,44.69946 79.9792272,44.7492933 79.9981993,44.8056267 L80.039232,44.9239267 C80.0842356,45.0482933 80.1345338,45.1886933 80.1852732,45.3061267 L81.734369,49.1354933 L81.7392223,49.14676 L82.1998478,49.14676 L83.7387956,45.30526 C83.7807108,45.1873933 83.8314502,45.05176 83.8808659,44.92306 L83.9095447,44.8472267 C83.9333702,44.7830933 83.9541072,44.72286 83.9713144,44.6665267 L83.9713144,49.14676 L84.4888562,49.14676 L84.4888562,43.90646 L83.7621799,43.90646 L81.9805653,48.43696 Z" id="Fill-27"></path>
                            <path d="M94.5417421,43.9064167 L94.5417421,48.3961833 C94.5205639,48.3589167 94.4989445,48.3220833 94.4777663,48.28655 L94.4587942,48.2531833 C94.4380572,48.21765 94.4164378,48.1808167 94.3970245,48.1444167 C94.3017227,47.9793167 94.1737712,47.76525 94.0325833,47.5685167 L91.5940039,43.91465 L91.5891505,43.9064167 L91.0208693,43.9064167 L91.0208693,49.1467167 L91.5309105,49.1467167 L91.5309105,44.6768833 C91.5891505,44.7787167 91.6407724,44.8653833 91.6981299,44.9516167 L91.7126899,44.97545 C91.7373978,45.0140167 91.7629881,45.0538833 91.7885784,45.09505 C91.8754972,45.2337167 91.9756524,45.39275 92.0691893,45.5275167 L94.4998269,49.1384833 L94.5051215,49.1467167 L95.0517833,49.1467167 L95.0517833,43.9064167 L94.5417421,43.9064167 Z" id="Fill-29"></path>
                            <polygon id="Fill-32" points="77.4861581 46.1560667 74.5194478 46.1560667 74.5194478 43.9066333 73.9873459 43.9066333 73.9873459 49.1465 74.5194478 49.1465 74.5194478 46.5985 77.4861581 46.5985 77.4861581 49.1465 78.0178187 49.1465 78.0178187 43.9066333 77.4861581 43.9066333"></polygon>
                            <polygon id="Fill-34" points="69.4935122 46.6638467 72.3402128 46.6638467 72.3402128 46.20668 69.4935122 46.20668 69.4935122 44.3706467 72.5996456 44.3706467 72.5996456 43.9065467 68.9622928 43.9065467 68.9622928 49.1464133 72.6812698 49.1464133 72.6812698 48.65978 69.4935122 48.65978"></polygon>
                            <polygon id="Fill-36" points="53.5870211 46.6638467 56.4332805 46.6638467 56.4332805 46.20668 53.5870211 46.20668 53.5870211 44.3706467 56.6927132 44.3706467 56.6927132 43.9065467 53.0544781 43.9065467 53.0544781 49.1464133 56.7747787 49.1464133 56.7747787 48.65978 53.5870211 48.65978"></polygon>
                            <path d="M61.4383467,45.37234 C61.4383467,46.0279733 61.0421382,46.3742067 60.2920776,46.3742067 L58.6128242,46.3742067 L58.6128242,44.37004 L60.3591418,44.37004 C61.0955248,44.37004 61.4383467,44.6889733 61.4383467,45.37234 M61.859263,47.9849067 C61.8204364,47.14164 61.6143903,46.7624733 61.1003782,46.59174 C61.6955733,46.3950067 61.9850085,45.98204 61.9850085,45.32814 C61.9850085,44.4380733 61.4158448,43.90594 60.4628267,43.90594 L58.0807224,43.90594 L58.0807224,49.14624 L58.6128242,49.14624 L58.6128242,46.82444 L60.2113358,46.82444 C61.0103709,46.82444 61.2918642,47.1121733 61.32672,47.96454 C61.3637818,48.8476733 61.3990788,49.0569733 61.5274715,49.1432067 L61.5301188,49.1453733 L62.0891345,49.14624 L62.0891345,49.09034 L62.0798691,49.0847067 C61.9598594,49.0114733 61.8892655,48.66264 61.859263,47.9849067" id="Fill-38"></path>
                        </g>
                    </g>
                </g>
            </g>
        </g>
    </g>
</svg>