<?xml version="1.0" encoding="UTF-8"?>
<svg width="97px" height="49px" viewBox="0 0 97 49" version="1.1" xmlns="http://www.w3.org/2000/svg" xmlns:xlink="http://www.w3.org/1999/xlink">
    <title>logos/b-baunuternehmen</title>
    <defs>
        <filter id="filter-1">
            <feColorMatrix in="SourceGraphic" type="matrix" values="0 0 0 0 1.000000 0 0 0 0 1.000000 0 0 0 0 1.000000 0 0 0 1.000000 0"></feColorMatrix>
        </filter>
        <polygon id="path-2" points="0.43644569 0.2839425 5.29287672 0.2839425 5.29287672 5.525 0.43644569 5.525"></polygon>
        <polygon id="path-4" points="0.0263353448 0.290955 4.62864569 0.290955 4.62864569 5.525 0.0263353448 5.525"></polygon>
        <polygon id="path-6" points="0.435742241 0.3893425 4.45062931 0.3893425 4.45062931 5.4268675 0.435742241 5.4268675"></polygon>
    </defs>
    <g id="-" stroke="none" stroke-width="1" fill="none" fill-rule="evenodd">
        <g id="02-Barnsley-Referenzen-2-–-L" transform="translate(-1400.000000, -9817.000000)">
            <g id="Group" transform="translate(0.000000, 8624.000000)">
                <g id="moduls/footer" transform="translate(0.000000, 885.000000)">
                    <g id="logos/b-baunuternehmen" transform="translate(1400.000000, 308.500000)" filter="url(#filter-1)">
                        <g id="Group-44">
                            <path d="M49.7638655,11.646785 L51.2085724,11.646785 C52.5987621,11.646785 53.2938569,11.093435 53.8390293,9.512435 L56.2514172,2.67461 L54.0298397,2.67461 L53.1166759,5.54676 C53.0076414,5.876135 52.8986069,6.271385 52.8304603,6.57441 C52.7895724,6.745685 52.7486845,6.930135 52.7077966,7.10141 L52.6805379,7.10141 C52.63965,6.930135 52.5851328,6.745685 52.5442448,6.57441 C52.4484,6.271385 52.3534345,5.876135 52.2444,5.54676 L51.3039776,2.67461 L48.9597362,2.67461 L51.0177621,7.86556 C51.3039776,8.590185 51.4402707,8.959085 51.4402707,9.26211 C51.4402707,9.723235 51.1813138,9.97356 50.5271069,9.97356 L49.7638655,9.97356 L49.7638655,11.646785 Z M44.7482793,8.221285 C44.2031069,8.221285 43.7942276,8.010485 43.7942276,7.47031 C43.7942276,6.956485 44.1485897,6.75886 45.0072362,6.561235 C45.4570034,6.455835 45.8658828,6.350435 46.1520983,6.20551 L46.1520983,7.009185 C46.1520983,7.746985 45.5796672,8.221285 44.7482793,8.221285 L44.7482793,8.221285 Z M44.0395552,9.591485 C45.0890121,9.591485 45.6887017,9.23576 46.1112103,8.669235 L46.138469,8.669235 C46.1929862,9.02496 46.2611328,9.275285 46.3701672,9.42021 L48.5235983,9.42021 L48.5235983,9.327985 C48.3191586,9.20941 48.2782707,8.906385 48.2782707,8.36621 L48.2782707,4.96706 C48.2782707,4.12386 47.9920552,3.46511 47.3923655,3.04351 C46.888081,2.67461 46.1793569,2.49016 45.1299,2.49016 C43.0309862,2.49016 42.0087879,3.54416 41.9679,4.80896 L44.0122966,4.80896 C44.0804431,4.242435 44.4348052,3.93941 45.1435293,3.93941 C45.8113655,3.93941 46.097581,4.22926 46.097581,4.664035 C46.097581,5.12516 45.6341845,5.25691 44.3257707,5.41501 C42.8674345,5.586285 41.6544259,6.060585 41.6544259,7.536185 C41.6544259,8.86686 42.6493655,9.591485 44.0395552,9.591485 L44.0395552,9.591485 Z M38.3152448,9.42021 L40.564081,9.42021 L40.564081,8.5e-05 L38.3152448,8.5e-05 L38.3152448,9.42021 Z M34.0629,9.63101 C35.8892276,9.63101 37.2385293,8.86686 37.2385293,7.39126 C37.2385293,5.665335 35.7938224,5.375485 34.5671845,5.164685 C33.6812793,5.01976 32.8907793,4.94071 32.8907793,4.46641 C32.8907793,4.04481 33.3132879,3.847185 33.8584603,3.847185 C34.4717793,3.847185 34.8806586,4.01846 34.9760638,4.637685 L37.0204603,4.637685 C36.9114259,3.30701 35.8483397,2.476985 33.8720897,2.476985 C32.2229431,2.476985 30.8600121,3.214785 30.8600121,4.637685 C30.8600121,6.23186 32.1547966,6.52171 33.3678052,6.73251 C34.280969,6.903785 35.1396155,6.94331 35.1396155,7.562535 C35.1396155,7.99731 34.7171069,8.23446 34.0492707,8.23446 C33.2996586,8.23446 32.8635207,7.905085 32.7681155,7.23316 L30.6692017,7.23316 C30.7373483,8.721935 32.0048741,9.63101 34.0629,9.63101 L34.0629,9.63101 Z M22.9141241,9.42021 L25.1357017,9.42021 L25.1357017,5.691685 C25.1357017,4.848485 25.6127276,4.268785 26.3623397,4.268785 C27.0851328,4.268785 27.4526845,4.743085 27.4526845,5.46771 L27.4526845,9.42021 L29.6747017,9.42021 L29.6747017,5.032935 C29.6747017,3.530985 28.7747276,2.476985 27.2486845,2.476985 C26.2669345,2.476985 25.6267966,2.85906 25.0952534,3.59686 L25.0539259,3.59686 L25.0539259,2.67461 L22.9141241,2.67461 L22.9141241,9.42021 Z M17.2447707,9.42021 L19.4659086,9.42021 L19.4659086,6.38996 C19.4659086,4.91436 20.3386241,4.268785 21.7011155,4.46641 L21.7556328,4.46641 L21.7556328,2.62191 C21.6738569,2.582385 21.5243741,2.56921 21.3199345,2.56921 C20.4612879,2.56921 19.9024862,2.924935 19.4113914,3.72861 L19.3709431,3.72861 L19.3709431,2.67461 L17.2447707,2.67461 L17.2447707,9.42021 Z M12.2291845,8.221285 C11.6840121,8.221285 11.2751328,8.010485 11.2751328,7.47031 C11.2751328,6.956485 11.6294948,6.75886 12.4881414,6.561235 C12.9379086,6.455835 13.3467879,6.350435 13.6330034,6.20551 L13.6330034,7.009185 C13.6330034,7.746985 13.0605724,8.221285 12.2291845,8.221285 L12.2291845,8.221285 Z M11.5204603,9.591485 C12.5699172,9.591485 13.1696069,9.23576 13.5921155,8.669235 L13.6193741,8.669235 C13.6738914,9.02496 13.7420379,9.275285 13.8510724,9.42021 L16.0045034,9.42021 L16.0045034,9.327985 C15.8000638,9.20941 15.7591759,8.906385 15.7591759,8.36621 L15.7591759,4.96706 C15.7591759,4.12386 15.4729603,3.46511 14.8732707,3.04351 C14.3689862,2.67461 13.6602621,2.49016 12.6108052,2.49016 C10.5118914,2.49016 9.4896931,3.54416 9.44880517,4.80896 L11.4932017,4.80896 C11.5613483,4.242435 11.9157103,3.93941 12.6244345,3.93941 C13.2922707,3.93941 13.5784862,4.22926 13.5784862,4.664035 C13.5784862,5.12516 13.1150897,5.25691 11.8066759,5.41501 C10.3483397,5.586285 9.13533103,6.060585 9.13533103,7.536185 C9.13533103,8.86686 10.1302707,9.591485 11.5204603,9.591485 L11.5204603,9.591485 Z M2.42971034,3.72861 L2.42971034,1.844585 L4.40596034,1.844585 C5.11468448,1.844585 5.56445172,2.187135 5.56445172,2.78001 C5.56445172,3.399235 5.08742586,3.72861 4.39233103,3.72861 L2.42971034,3.72861 Z M2.42971034,7.54936 L2.42971034,5.30961 L4.55588276,5.30961 C5.30549483,5.30961 5.86429655,5.691685 5.86429655,6.44266 C5.86429655,7.114585 5.38727069,7.54936 4.58314138,7.54936 L2.42971034,7.54936 Z M0.0445810345,9.42021 L4.85572759,9.42021 C5.86429655,9.42021 6.66842586,9.196235 7.25448621,8.748285 C7.89506379,8.273985 8.24942586,7.588885 8.24942586,6.640285 C8.24942586,5.52041 7.58158966,4.65086 6.50487414,4.33466 L6.50487414,4.295135 C7.37715,3.978935 7.86824483,3.399235 7.86824483,2.450635 C7.86824483,1.69966 7.58158966,1.09361 7.02278793,0.64566 C6.49124483,0.237235 5.76889138,8.5e-05 4.7466931,8.5e-05 L0.0445810345,8.5e-05 L0.0445810345,9.42021 Z" id="Fill-1" fill="#0C253C"></path>
                            <polygon id="Fill-3" fill="#0C253C" points="94.7164526 35.8634975 93.8371422 35.8634975 93.8371422 3.5235475 63.9331164 3.5235475 63.9331164 2.6735475 94.7164526 2.6735475"></polygon>
                            <polygon id="Fill-5" fill="#0C253C" points="0.884234483 45.1030825 0.879398276 16.6786575 8.79310345e-05 16.6786575 0.00492413793 45.9530825 7.41531207 45.9530825 7.41531207 45.1030825"></polygon>
                            <path d="M17.4000569,44.475145 C17.4000569,44.798995 17.3077293,45.04762 17.1252724,45.212945 C16.9305052,45.38932 16.6275828,45.47857 16.2239793,45.47857 L14.7867466,45.47857 L14.7867466,43.48532 L16.2675052,43.48532 C17.0083241,43.48532 17.4000569,43.827445 17.4000569,44.475145 M16.3255397,43.046295 L14.2745483,43.046295 L14.2745483,48.083395 L14.7867466,48.083395 L14.7867466,45.903145 L16.2604707,45.903145 C16.8060828,45.903145 17.2237552,45.77947 17.5024966,45.53467 C17.7794793,45.29242 17.9197293,44.93032 17.9197293,44.460695 C17.9197293,44.05992 17.8032207,43.750095 17.5534966,43.48447 C17.2470569,43.181445 16.8685138,43.046295 16.3255397,43.046295" id="Fill-7" fill="#0C253C"></path>
                            <path d="M22.0282629,44.453555 C22.0282629,44.76423 21.9332974,45.005205 21.7460043,45.169255 C21.5547543,45.33713 21.2711767,45.422555 20.9027457,45.422555 L19.2553578,45.422555 L19.2553578,43.485405 L20.9682543,43.485405 C21.6914871,43.485405 22.0282629,43.79268 22.0282629,44.453555 M22.4318664,46.969555 C22.3936164,46.15483 22.1909353,45.79103 21.6848922,45.62953 L21.6848922,45.62698 C22.2705129,45.439555 22.5549698,45.042605 22.5549698,44.41148 C22.5549698,43.556805 22.000125,43.04553 21.0698147,43.04553 L18.7431595,43.04553 L18.7431595,48.08348 L19.2553578,48.08348 L19.2553578,45.847555 L20.8231681,45.847555 C21.6083922,45.847555 21.8849353,46.12593 21.9192284,46.94958 C21.9552802,47.798305 21.9900129,47.999755 22.1139957,48.08178 L22.1153147,48.083055 L22.6565302,48.08348 L22.6565302,48.036305 L22.650375,48.032055 C22.5307888,47.960655 22.4613233,47.623205 22.4318664,46.969555" id="Fill-9" fill="#0C253C"></path>
                            <g id="Group-13" transform="translate(22.862069, 42.656825)">
                                <mask id="mask-3" fill="white">
                                    <use xlink:href="#path-2"></use>
                                </mask>
                                <g id="Clip-12"></g>
                                <path d="M4.75869569,2.9044925 C4.75869569,3.5130925 4.58591121,4.0604925 4.27243707,4.4451175 C3.93346293,4.8599175 3.44412672,5.0796425 2.85762672,5.0796425 C2.27508362,5.0796425 1.78926466,4.8599175 1.45292845,4.4451175 C1.14209224,4.0604925 0.970626724,3.5135175 0.970626724,2.9044925 C0.970626724,2.2954675 1.14209224,1.7484925 1.45292845,1.3642925 C1.788825,0.9494925 2.27464397,0.7301925 2.85762672,0.7301925 C3.44456638,0.7301925 3.93390259,0.9494925 4.27243707,1.3642925 C4.58591121,1.7484925 4.75869569,2.2958925 4.75869569,2.9044925 M5.28012672,2.7408675 C5.27616983,2.6664925 5.27001466,2.5916925 5.26210086,2.5194425 C5.25023017,2.4178675 5.23484224,2.3256425 5.21593707,2.2359675 C5.19923017,2.1543675 5.17812672,2.0719175 5.15350603,1.9911675 C5.12888534,1.9099925 5.10250603,1.8347675 5.07348879,1.7616675 C5.04095431,1.6809175 5.00446293,1.6027175 4.96577328,1.5291925 C4.92972155,1.4590675 4.89059224,1.3923425 4.84618707,1.3247675 C4.80441983,1.2605925 4.75869569,1.1972675 4.70549741,1.1309675 C4.69450603,1.1173675 4.68439397,1.1024925 4.6742819,1.0876175 C4.6615319,1.0689175 4.6487819,1.0493675 4.63295431,1.0323675 C4.19066121,0.5427675 3.57690259,0.2839425 2.85762672,0.2839425 C2.14494569,0.2839425 1.53514397,0.5427675 1.09460948,1.0323675 C1.0787819,1.0497925 1.06559224,1.0693425 1.05284224,1.0884675 C1.04316983,1.1033425 1.03305776,1.1182175 1.02206638,1.1318175 C0.97370431,1.1917425 0.926661207,1.2563425 0.88269569,1.3243425 C0.837411207,1.3936175 0.797842241,1.4611925 0.762230172,1.5304675 C0.723980172,1.6027175 0.689247414,1.6787925 0.655833621,1.7612425 C0.62769569,1.8322175 0.600876724,1.9082925 0.574937069,1.9928675 C0.552075,2.0693675 0.531411207,2.1505425 0.513825,2.2355425 C0.494480172,2.3239425 0.479531897,2.4170175 0.467221552,2.5202925 C0.458868103,2.5989175 0.453152586,2.6711675 0.449635345,2.7404425 C0.448756034,2.7633925 0.446118103,2.7867675 0.443480172,2.8088675 C0.439962931,2.8398925 0.43644569,2.8717675 0.43644569,2.9044925 C0.43644569,2.9372175 0.439962931,2.9690925 0.443480172,2.9996925 C0.446118103,3.0222175 0.448756034,3.0455925 0.449635345,3.0689675 C0.453152586,3.1382425 0.458868103,3.2117675 0.467221552,3.2886925 C0.479531897,3.3915425 0.494480172,3.4850425 0.513825,3.5742925 C0.530971552,3.6571675 0.551635345,3.7387675 0.574937069,3.8161175 C0.600437069,3.9002675 0.627256034,3.9759175 0.655833621,4.0477425 C0.690126724,4.1314675 0.724419828,4.2071175 0.762230172,4.2789425 C0.798281897,4.3490675 0.837850862,4.4166425 0.88269569,4.4854925 C0.929299138,4.5564675 0.975023276,4.6193675 1.02206638,4.6771675 C1.03305776,4.6907675 1.04316983,4.7056425 1.05284224,4.7196675 C1.06559224,4.7396425 1.0787819,4.7596175 1.09460948,4.7766175 C1.53470431,5.2662175 2.14450603,5.5250425 2.85762672,5.5250425 C3.57734224,5.5250425 4.19110086,5.2662175 4.63295431,4.7766175 C4.6487819,4.7596175 4.66197155,4.7400675 4.67472155,4.7209425 C4.68439397,4.7064925 4.69450603,4.6911925 4.70549741,4.6780175 C4.75781638,4.6129925 4.80485948,4.5483925 4.84618707,4.4850675 C4.88883362,4.4187675 4.92840259,4.3524675 4.96577328,4.2802175 C5.00402328,4.2079675 5.040075,4.1297675 5.07348879,4.0473175 C5.10338534,3.9729425 5.12976466,3.8977175 5.15350603,3.8178175 C5.17812672,3.7374925 5.19923017,3.6550425 5.21593707,3.5738675 C5.23484224,3.4837675 5.25023017,3.3906925 5.26210086,3.2899675 C5.27001466,3.2177175 5.27616983,3.1433425 5.28012672,3.0681175 C5.28100603,3.0447425 5.28364397,3.0213675 5.2862819,2.9988425 C5.28935948,2.9682425 5.29287672,2.9372175 5.29287672,2.9044925 C5.29287672,2.8726175 5.28935948,2.8407425 5.2862819,2.8105675 C5.28364397,2.7876175 5.28100603,2.7642425 5.28012672,2.7408675" id="Fill-11" fill="#0C253C" mask="url(#mask-3)"></path>
                            </g>
                            <path d="M31.08195,46.837125 C31.08195,47.443175 30.7865017,47.750025 30.2030793,47.750025 C29.8553121,47.750025 29.6200966,47.6731 29.4622603,47.507775 C29.2960707,47.334375 29.2156138,47.05515 29.2156138,46.6548 L29.2156138,46.474175 L28.71045,46.474175 L28.71045,46.67605 C28.71045,47.670975 29.2077,48.175025 30.1885707,48.175025 C31.0687603,48.175025 31.5941483,47.687975 31.5941483,46.8724 L31.5941483,43.046125 L31.08195,43.046125 L31.08195,46.837125 Z" id="Fill-14" fill="#0C253C"></path>
                            <polygon id="Fill-16" fill="#0C253C" points="33.263475 45.692855 36.0482509 45.692855 36.0482509 45.26148 33.263475 45.26148 33.263475 43.48583 36.3023716 43.48583 36.3023716 43.045955 32.7508371 43.045955 32.7508371 48.08348 36.3819491 48.08348 36.3819491 47.62363 33.263475 47.62363"></polygon>
                            <polygon id="Fill-18" fill="#0C253C" points="41.317694 43.0677575 41.3423147 43.0460825 40.6722802 43.0460825 37.8919009 45.6993575 37.8919009 43.0460825 37.3792629 43.0460825 37.3792629 48.0836075 37.8919009 48.0836075 37.8919009 46.3100825 38.8050647 45.4401075 40.8490216 48.0793575 40.8534181 48.0836075 41.4654181 48.0836075 39.1581078 45.1001075"></polygon>
                            <polygon id="Fill-20" fill="#0C253C" points="41.8047879 43.4923325 43.5598914 43.4923325 43.5598914 48.0840325 44.0720897 48.0840325 44.0720897 43.4923325 45.8201586 43.4923325 45.8201586 43.0456575 41.8047879 43.0456575"></polygon>
                            <path d="M49.0859172,47.4169525 L47.2995983,43.0530525 L47.2956414,43.0462525 L46.6141759,43.0462525 L46.6141759,48.0833525 L47.0903224,48.0833525 L47.0903224,43.7373025 C47.1136241,43.8010525 47.1373655,43.8686275 47.1611069,43.9387525 L47.1742966,43.9761525 C47.2200207,44.1023775 47.2767362,44.2587775 47.3325724,44.3892525 L48.8489431,48.0761275 L48.8520207,48.0833525 L49.297831,48.0833525 L50.802331,44.3884025 C50.8410207,44.2821525 50.8885034,44.1580525 50.9307103,44.0484025 L50.9689603,43.9468275 C50.9966586,43.8737275 51.0195207,43.8061525 51.0375466,43.7449525 L51.0375466,48.0833525 L51.5356759,48.0833525 L51.5356759,43.0462525 L50.8317879,43.0462525 L49.0859172,47.4169525 Z" id="Fill-22" fill="#0C253C"></path>
                            <path d="M54.3712319,43.8957425 L54.4974129,43.5272675 C54.520275,43.5973925 54.5453353,43.6709175 54.5756716,43.7571925 L54.5800681,43.7712175 C54.6486543,43.9705425 54.7075681,44.1286425 54.7537319,44.2408425 L55.4580595,46.0959675 L53.5301716,46.0959675 L54.2494474,44.2408425 C54.2916543,44.1337425 54.3338612,44.0070925 54.3712319,43.8957425 L54.3712319,43.8957425 Z M54.7827491,43.0461675 L54.2133957,43.0461675 L52.2516543,48.0666925 L52.2450595,48.0836925 L52.7664905,48.0836925 L53.3754129,46.5065175 L55.6123784,46.5065175 L56.2116284,48.0751925 L56.214706,48.0836925 L56.7651543,48.0836925 L54.7858267,43.0546675 L54.7827491,43.0461675 Z" id="Fill-24" fill="#0C253C"></path>
                            <path d="M60.9188405,47.3812525 C60.8964181,47.3417275 60.8726767,47.3013525 60.849375,47.2622525 L60.837944,47.2435525 C60.8150819,47.2053025 60.7913405,47.1649275 60.7693578,47.1249775 C60.6858233,46.9826025 60.5583233,46.7696775 60.4136767,46.5712025 L58.0276681,43.0513525 L58.0232716,43.0458275 L57.4741422,43.0458275 L57.4741422,48.0837775 L57.9647974,48.0837775 L57.9647974,43.7696025 C58.0153578,43.8554525 58.0725129,43.9519275 58.1358233,44.0462775 C58.1639612,44.0909025 58.1942974,44.1372275 58.2250733,44.1856775 C58.3050905,44.3114775 58.4053319,44.4683025 58.4985388,44.6009025 L60.8770733,48.0782525 L60.8814698,48.0837775 L61.4094957,48.0837775 L61.4094957,43.0458275 L60.9188405,43.0458275 L60.9188405,47.3812525 Z" id="Fill-26" fill="#0C253C"></path>
                            <path d="M64.2445681,43.8953175 C64.2595164,43.8502675 64.2749043,43.8060675 64.2894129,43.7635675 L64.3703095,43.5272675 C64.3931716,43.5973925 64.4182319,43.6709175 64.4481284,43.7571925 L64.4529647,43.7712175 C64.4898957,43.8783175 64.5615595,44.0814675 64.6266284,44.2404175 L65.3313957,46.0959675 L63.4035078,46.0959675 L64.122344,44.2404175 C64.1623526,44.1384175 64.2014819,44.0236675 64.2445681,43.8953175 L64.2445681,43.8953175 Z M64.6560853,43.0461675 L64.0862922,43.0461675 L62.1249905,48.0666925 L62.1183957,48.0832675 L62.6393871,48.0832675 L63.2487491,46.5065175 L65.4857147,46.5065175 L66.084525,48.0751925 L66.0876026,48.0832675 L66.6384905,48.0832675 L64.6591629,43.0542425 L64.6560853,43.0461675 Z" id="Fill-28" fill="#0C253C"></path>
                            <g id="Group-32" transform="translate(66.827586, 42.656825)">
                                <mask id="mask-5" fill="white">
                                    <use xlink:href="#path-4"></use>
                                </mask>
                                <g id="Clip-31"></g>
                                <path d="M2.45543017,3.267655 L4.1234819,3.267655 L4.1234819,3.43043 C4.1234819,4.23113 3.6772319,5.08623 2.42553362,5.08623 C1.84167155,5.08623 1.35980948,4.869905 1.03182672,4.460205 C0.723628448,4.075155 0.560076724,3.54008 0.560076724,2.911505 C0.560076724,2.28293 0.722309483,1.747855 1.02918879,1.36408 C1.36464569,0.944605 1.86936983,0.723605 2.49016293,0.723605 C3.30572328,0.723605 3.86364569,1.135855 4.02192155,1.85623 L4.02499914,1.86558 L4.55214569,1.86558 L4.54862845,1.850705 C4.35737845,0.86003 3.60732672,0.290955 2.49016293,0.290955 C1.73835259,0.290955 1.10832672,0.55148 0.667792241,1.044905 C0.651085345,1.06318 0.637456034,1.08358 0.624266379,1.103555 C0.61415431,1.118855 0.603162931,1.135005 0.591731897,1.150305 C0.549964655,1.202155 0.51039569,1.25698 0.470387069,1.31733 C0.418507759,1.396805 0.370585345,1.48223 0.325300862,1.571905 C0.301119828,1.62248 0.277818103,1.673905 0.255835345,1.72533 C0.213628448,1.82733 0.177137069,1.93443 0.147240517,2.042805 C0.133611207,2.093805 0.119981897,2.14693 0.108550862,2.200055 C0.0843698276,2.313955 0.0659043103,2.429555 0.0535939655,2.546005 C0.0469991379,2.610605 0.0426025862,2.675205 0.039525,2.73768 C0.0382060345,2.761905 0.0355681034,2.78613 0.0329301724,2.810355 C0.029412931,2.842655 0.0263353448,2.87623 0.0263353448,2.911505 C0.0263353448,2.94763 0.029412931,2.982055 0.0329301724,3.016055 C0.0355681034,3.040705 0.0382060345,3.06578 0.039525,3.091705 C0.0426025862,3.15843 0.0469991379,3.21963 0.0527146552,3.27658 C0.065025,3.396005 0.0830508621,3.51288 0.106792241,3.62593 C0.119102586,3.68118 0.131412931,3.73303 0.144602586,3.78403 C0.174938793,3.894105 0.210550862,3.99993 0.250119828,4.098955 C0.270783621,4.150805 0.29364569,4.20223 0.320464655,4.25663 C0.362671552,4.345455 0.408835345,4.42748 0.458956034,4.506105 C0.499843966,4.569005 0.539412931,4.62468 0.579861207,4.67653 C0.591292241,4.691405 0.60140431,4.70713 0.611516379,4.72243 C0.623826724,4.74198 0.637016379,4.76238 0.652843966,4.78023 C0.666912931,4.795955 0.682740517,4.808705 0.698128448,4.82188 C0.709999138,4.83208 0.723188793,4.84228 0.734180172,4.853755 C0.793533621,4.91538 0.857723276,4.97403 0.925869828,5.028855 C0.982585345,5.073905 1.04105948,5.11683 1.10568879,5.15763 C1.17647328,5.20353 1.25033534,5.24433 1.32551638,5.280455 C1.39234397,5.312755 1.46312845,5.34293 1.53655086,5.36928 C1.61261121,5.39733 1.69482672,5.421555 1.78011983,5.44238 C1.85749914,5.46108 1.93795603,5.47638 2.02676638,5.489555 C2.10986121,5.500605 2.194275,5.50783 2.2795681,5.51208 C2.29979224,5.51293 2.32001638,5.51548 2.33936121,5.518455 C2.36442155,5.521855 2.39080086,5.525255 2.41761983,5.525255 C3.36287845,5.525255 3.88562845,5.037355 4.15821466,4.62723 L4.1617319,4.62723 L4.26153362,5.416455 L4.26285259,5.426655 L4.62864569,5.426655 L4.62864569,2.829055 L2.45543017,2.829055 L2.45543017,3.267655 Z" id="Fill-30" fill="#0C253C" mask="url(#mask-5)"></path>
                            </g>
                            <polygon id="Fill-33" fill="#0C253C" points="73.024394 45.692855 75.8091698 45.692855 75.8091698 45.26148 73.024394 45.26148 73.024394 43.48583 76.0632905 43.48583 76.0632905 43.045955 72.5121957 43.045955 72.5121957 48.08348 76.1428681 48.08348 76.1428681 47.62363 73.024394 47.62363"></polygon>
                            <path d="M79.5388966,47.4169525 L77.7530172,43.0530525 L77.7495,43.0462525 L77.0675948,43.0462525 L77.0675948,48.0833525 L77.5433017,48.0833525 L77.5433017,43.7368775 C77.5657241,43.7959525 77.5868276,43.8580025 77.6052931,43.9115525 L77.6246379,43.9672275 C77.6712414,44.0968525 77.7297155,44.2575025 77.786431,44.3892525 L79.3028017,48.0761275 L79.3067586,48.0833525 L79.75125,48.0833525 L81.25575,44.3884025 C81.2970776,44.2749275 81.3480776,44.1419025 81.38325,44.0509525 L81.4223793,43.9468275 C81.448319,43.8796775 81.4716207,43.8108275 81.4914052,43.7449525 L81.4914052,48.0833525 L81.9890948,48.0833525 L81.9890948,43.0462525 L81.2856466,43.0462525 L79.5388966,47.4169525 Z" id="Fill-35" fill="#0C253C"></path>
                            <polygon id="Fill-37" fill="#0C253C" points="83.6224578 45.692855 86.406794 45.692855 86.406794 45.26148 83.6224578 45.26148 83.6224578 43.48583 86.6613543 43.48583 86.6613543 43.045955 83.1106991 43.045955 83.1106991 48.08348 86.7404922 48.08348 86.7404922 47.62363 83.6224578 47.62363"></polygon>
                            <path d="M91.0386491,47.3808275 C91.0201836,47.3485275 91.0012784,47.3162275 90.9823733,47.2847775 L90.955994,47.2410025 C90.9335716,47.2031775 90.9102698,47.1636525 90.8887267,47.1249775 C90.8043129,46.9809025 90.675494,46.7662775 90.5330457,46.5712025 L88.1474767,43.0513525 L88.1435198,43.0458275 L87.5939509,43.0458275 L87.5939509,48.0837775 L88.0837267,48.0837775 L88.0837267,43.7683275 C88.1263733,43.8410025 88.187925,43.9447025 88.2556319,44.0462775 L88.2824509,44.0887775 C88.3035543,44.1215025 88.3255371,44.1555025 88.3470802,44.1895025 L88.3598302,44.2099025 C88.4407267,44.3361275 88.532175,44.4789275 88.6183474,44.6009025 L90.9968819,48.0782525 L91.0012784,48.0837775 L91.528425,48.0837775 L91.528425,43.0458275 L91.0386491,43.0458275 L91.0386491,47.3808275 Z" id="Fill-39" fill="#0C253C"></path>
                            <g id="Group-43" transform="translate(91.887931, 42.656825)">
                                <mask id="mask-7" fill="white">
                                    <use xlink:href="#path-6"></use>
                                </mask>
                                <g id="Clip-42"></g>
                                <polygon id="Fill-41" fill="#0C253C" mask="url(#mask-7)" points="0.435742241 0.3893425 0.435742241 0.8355925 2.19128534 0.8355925 2.19128534 5.4268675 2.70260431 5.4268675 2.70260431 0.8355925 4.45067328 0.8355925 4.45067328 0.3893425"></polygon>
                            </g>
                        </g>
                    </g>
                </g>
            </g>
        </g>
    </g>
</svg>